<svg width="22" height="22" viewBox="0 0 22 22" fill="none" xmlns="http://www.w3.org/2000/svg">
<path d="M13.75 20.8541H8.25001C3.27251 20.8541 1.14584 18.7275 1.14584 13.75V8.24998C1.14584 3.27248 3.27251 1.14581 8.25001 1.14581H13.75C18.7275 1.14581 20.8542 3.27248 20.8542 8.24998V13.75C20.8542 18.7275 18.7275 20.8541 13.75 20.8541ZM8.25001 2.52081C4.02418 2.52081 2.52084 4.02415 2.52084 8.24998V13.75C2.52084 17.9758 4.02418 19.4791 8.25001 19.4791H13.75C17.9758 19.4791 19.4792 17.9758 19.4792 13.75V8.24998C19.4792 4.02415 17.9758 2.52081 13.75 2.52081H8.25001Z" fill="#292D32"/>
<path d="M11 14.8959C8.85499 14.8959 7.10416 13.145 7.10416 11C7.10416 8.85502 8.85499 7.10419 11 7.10419C13.145 7.10419 14.8958 8.85502 14.8958 11C14.8958 13.145 13.145 14.8959 11 14.8959ZM11 8.47919C9.60666 8.47919 8.47916 9.60669 8.47916 11C8.47916 12.3934 9.60666 13.5209 11 13.5209C12.3933 13.5209 13.5208 12.3934 13.5208 11C13.5208 9.60669 12.3933 8.47919 11 8.47919Z" fill="#292D32"/>
<path d="M15.5833 6.87497C15.4642 6.87497 15.345 6.84747 15.235 6.80164C15.125 6.75581 15.0242 6.69164 14.9325 6.60914C14.85 6.51747 14.7767 6.41664 14.7308 6.30664C14.685 6.19664 14.6667 6.07747 14.6667 5.95831C14.6667 5.83914 14.685 5.71997 14.7308 5.60997C14.7858 5.49081 14.85 5.39914 14.9325 5.30747C14.9783 5.27081 15.0242 5.22497 15.07 5.19747C15.125 5.16081 15.18 5.13331 15.235 5.11497C15.29 5.08747 15.345 5.06914 15.4092 5.05997C15.7025 4.99581 16.0142 5.09664 16.2342 5.30747C16.3167 5.39914 16.3808 5.49081 16.4267 5.60997C16.4725 5.71997 16.5 5.83914 16.5 5.95831C16.5 6.07747 16.4725 6.19664 16.4267 6.30664C16.3808 6.41664 16.3167 6.51747 16.2342 6.60914C16.1425 6.69164 16.0417 6.75581 15.9317 6.80164C15.8217 6.84747 15.7025 6.87497 15.5833 6.87497Z" fill="#292D32"/>
</svg>
