<svg width="22" height="22" viewBox="0 0 22 22" fill="none" xmlns="http://www.w3.org/2000/svg">
<path d="M15.125 16.7291H13.7408C13.365 16.7291 13.0533 16.4175 13.0533 16.0416C13.0533 15.6658 13.365 15.3541 13.7408 15.3541H15.125C17.5267 15.3541 19.4792 13.4016 19.4792 11C19.4792 8.59831 17.5267 6.64581 15.125 6.64581H13.75C13.3742 6.64581 13.0625 6.33415 13.0625 5.95831C13.0625 5.58248 13.365 5.27081 13.75 5.27081H15.125C18.2875 5.27081 20.8542 7.83748 20.8542 11C20.8542 14.1625 18.2875 16.7291 15.125 16.7291Z" fill="#292D32"/>
<path d="M8.25001 16.7291H6.87501C3.71251 16.7291 1.14584 14.1625 1.14584 11C1.14584 7.83748 3.71251 5.27081 6.87501 5.27081H8.25001C8.62584 5.27081 8.93751 5.58248 8.93751 5.95831C8.93751 6.33415 8.62584 6.64581 8.25001 6.64581H6.87501C4.47334 6.64581 2.52084 8.59831 2.52084 11C2.52084 13.4016 4.47334 15.3541 6.87501 15.3541H8.25001C8.62584 15.3541 8.93751 15.6658 8.93751 16.0416C8.93751 16.4175 8.62584 16.7291 8.25001 16.7291Z" fill="#292D32"/>
<path d="M14.6667 11.6875H7.33334C6.95751 11.6875 6.64584 11.3758 6.64584 11C6.64584 10.6242 6.95751 10.3125 7.33334 10.3125H14.6667C15.0425 10.3125 15.3542 10.6242 15.3542 11C15.3542 11.3758 15.0425 11.6875 14.6667 11.6875Z" fill="#292D32"/>
</svg>
